<mxfile host="app.diagrams.net" agent="Mozilla/5.0 (Windows NT 10.0; Win64; x64) AppleWebKit/537.36 (KHTML, like Gecko) Chrome/139.0.0.0 Safari/537.36 Edg/139.0.0.0" version="28.1.2">
  <diagram name="Page-1" id="JQ0VV9HO-R1vaCJ0KMiT">
    <mxGraphModel dx="1297" dy="843" grid="1" gridSize="10" guides="1" tooltips="1" connect="1" arrows="1" fold="1" page="1" pageScale="1" pageWidth="827" pageHeight="1169" math="0" shadow="0">
      <root>
        <mxCell id="0" />
        <mxCell id="1" parent="0" />
        <mxCell id="ZBryR0kt3o8j6Fu_iN5K-2" value="ClassMCS2" style="rounded=1;whiteSpace=wrap;html=1;" parent="1" vertex="1">
          <mxGeometry x="74" y="90" width="100" height="40" as="geometry" />
        </mxCell>
        <mxCell id="ZBryR0kt3o8j6Fu_iN5K-3" value="Aerotrack Controller" style="rounded=1;whiteSpace=wrap;html=1;" parent="1" vertex="1">
          <mxGeometry x="74" y="210" width="100" height="40" as="geometry" />
        </mxCell>
        <mxCell id="ZBryR0kt3o8j6Fu_iN5K-4" value="CARs" style="rounded=1;whiteSpace=wrap;html=1;" parent="1" vertex="1">
          <mxGeometry x="74" y="450" width="100" height="40" as="geometry" />
        </mxCell>
        <mxCell id="ZBryR0kt3o8j6Fu_iN5K-5" value="Aerotrack" style="rounded=1;whiteSpace=wrap;html=1;" parent="1" vertex="1">
          <mxGeometry x="74" y="330" width="100" height="40" as="geometry" />
        </mxCell>
        <mxCell id="ZBryR0kt3o8j6Fu_iN5K-8" value="" style="shape=flexArrow;endArrow=classic;startArrow=classic;html=1;rounded=0;entryX=0.5;entryY=1;entryDx=0;entryDy=0;exitX=0.5;exitY=0;exitDx=0;exitDy=0;" parent="1" source="ZBryR0kt3o8j6Fu_iN5K-3" target="ZBryR0kt3o8j6Fu_iN5K-2" edge="1">
          <mxGeometry width="100" height="100" relative="1" as="geometry">
            <mxPoint x="394" y="380" as="sourcePoint" />
            <mxPoint x="494" y="280" as="targetPoint" />
          </mxGeometry>
        </mxCell>
        <mxCell id="ZBryR0kt3o8j6Fu_iN5K-9" value="" style="shape=flexArrow;endArrow=classic;startArrow=classic;html=1;rounded=0;entryX=0.5;entryY=1;entryDx=0;entryDy=0;exitX=0.5;exitY=0;exitDx=0;exitDy=0;" parent="1" edge="1">
          <mxGeometry width="100" height="100" relative="1" as="geometry">
            <mxPoint x="123.5" y="330" as="sourcePoint" />
            <mxPoint x="123.5" y="250" as="targetPoint" />
          </mxGeometry>
        </mxCell>
        <mxCell id="ZBryR0kt3o8j6Fu_iN5K-10" value="" style="shape=flexArrow;endArrow=classic;startArrow=classic;html=1;rounded=0;entryX=0.5;entryY=1;entryDx=0;entryDy=0;exitX=0.5;exitY=0;exitDx=0;exitDy=0;" parent="1" edge="1">
          <mxGeometry width="100" height="100" relative="1" as="geometry">
            <mxPoint x="123.5" y="450" as="sourcePoint" />
            <mxPoint x="123.5" y="370" as="targetPoint" />
          </mxGeometry>
        </mxCell>
        <mxCell id="ZBryR0kt3o8j6Fu_iN5K-12" value="&lt;font style=&quot;font-size: 18px;&quot;&gt;&lt;u&gt;Système AMHS actuel&lt;/u&gt;&lt;/font&gt;" style="text;html=1;align=center;verticalAlign=middle;resizable=0;points=[];autosize=1;strokeColor=none;fillColor=none;" parent="1" vertex="1">
          <mxGeometry x="314" y="10" width="200" height="40" as="geometry" />
        </mxCell>
        <mxCell id="ZBryR0kt3o8j6Fu_iN5K-13" value="&lt;font style=&quot;font-size: 15px;&quot;&gt;&lt;u style=&quot;&quot;&gt;Vision globale des interactions&lt;/u&gt;&lt;/font&gt;" style="text;html=1;align=center;verticalAlign=middle;resizable=0;points=[];autosize=1;strokeColor=none;fillColor=none;" parent="1" vertex="1">
          <mxGeometry x="14" y="50" width="230" height="30" as="geometry" />
        </mxCell>
        <mxCell id="ZBryR0kt3o8j6Fu_iN5K-19" value="&lt;font style=&quot;font-size: 15px;&quot;&gt;&lt;u style=&quot;&quot;&gt;Vision détaillé des interactions: PC - AEROTRACK&lt;/u&gt;&lt;/font&gt;" style="text;html=1;align=center;verticalAlign=middle;resizable=0;points=[];autosize=1;strokeColor=none;fillColor=none;" parent="1" vertex="1">
          <mxGeometry x="369" y="165" width="360" height="30" as="geometry" />
        </mxCell>
        <mxCell id="ZBryR0kt3o8j6Fu_iN5K-20" value="&lt;font style=&quot;font-size: 15px;&quot;&gt;&lt;u style=&quot;&quot;&gt;Vision détaillé des interactions: AEROTRACK - CARs&lt;/u&gt;&lt;/font&gt;" style="text;html=1;align=center;verticalAlign=middle;resizable=0;points=[];autosize=1;strokeColor=none;fillColor=none;" parent="1" vertex="1">
          <mxGeometry x="359" y="275" width="380" height="30" as="geometry" />
        </mxCell>
        <mxCell id="ZBryR0kt3o8j6Fu_iN5K-23" value="Aerotrack Controller" style="rounded=1;whiteSpace=wrap;html=1;" parent="1" vertex="1">
          <mxGeometry x="256" y="215" width="100" height="40" as="geometry" />
        </mxCell>
        <mxCell id="ZBryR0kt3o8j6Fu_iN5K-24" value="Node" style="rounded=1;whiteSpace=wrap;html=1;" parent="1" vertex="1">
          <mxGeometry x="516" y="215" width="100" height="40" as="geometry" />
        </mxCell>
        <mxCell id="ZBryR0kt3o8j6Fu_iN5K-25" value="Station" style="rounded=1;whiteSpace=wrap;html=1;" parent="1" vertex="1">
          <mxGeometry x="476" y="325" width="100" height="40" as="geometry" />
        </mxCell>
        <mxCell id="ZBryR0kt3o8j6Fu_iN5K-29" value="Main Board" style="rounded=1;whiteSpace=wrap;html=1;" parent="1" vertex="1">
          <mxGeometry x="694" y="325" width="100" height="40" as="geometry" />
        </mxCell>
        <mxCell id="ZBryR0kt3o8j6Fu_iN5K-35" value="" style="edgeStyle=none;orthogonalLoop=1;jettySize=auto;html=1;endArrow=classic;startArrow=classic;endSize=8;startSize=8;rounded=0;entryX=0;entryY=0.25;entryDx=0;entryDy=0;exitX=1;exitY=0.25;exitDx=0;exitDy=0;" parent="1" source="ZBryR0kt3o8j6Fu_iN5K-23" target="ZBryR0kt3o8j6Fu_iN5K-24" edge="1">
          <mxGeometry width="100" relative="1" as="geometry">
            <mxPoint x="406" y="225" as="sourcePoint" />
            <mxPoint x="506" y="225" as="targetPoint" />
            <Array as="points" />
          </mxGeometry>
        </mxCell>
        <mxCell id="ZBryR0kt3o8j6Fu_iN5K-39" value="" style="shape=flexArrow;endArrow=classic;startArrow=classic;html=1;rounded=0;entryX=0;entryY=0.75;entryDx=0;entryDy=0;exitX=1;exitY=0.75;exitDx=0;exitDy=0;endWidth=9;endSize=5.3625;startWidth=9;startSize=6.120833333333334;width=7.916666666666667;" parent="1" source="ZBryR0kt3o8j6Fu_iN5K-23" target="ZBryR0kt3o8j6Fu_iN5K-24" edge="1">
          <mxGeometry width="100" height="100" relative="1" as="geometry">
            <mxPoint x="356" y="325" as="sourcePoint" />
            <mxPoint x="456" y="225" as="targetPoint" />
          </mxGeometry>
        </mxCell>
        <mxCell id="ZBryR0kt3o8j6Fu_iN5K-43" value="câble RJ45&lt;br&gt;BitBus" style="text;html=1;align=center;verticalAlign=middle;resizable=0;points=[];autosize=1;strokeColor=none;fillColor=none;" parent="1" vertex="1">
          <mxGeometry x="396" y="205" width="80" height="40" as="geometry" />
        </mxCell>
        <mxCell id="ZBryR0kt3o8j6Fu_iN5K-47" value="" style="swimlane;startSize=0;" parent="1" vertex="1">
          <mxGeometry x="14" y="50" width="230" height="450" as="geometry" />
        </mxCell>
        <mxCell id="ZBryR0kt3o8j6Fu_iN5K-48" value="" style="swimlane;startSize=0;" parent="1" vertex="1">
          <mxGeometry x="244" y="165" width="570" height="110" as="geometry" />
        </mxCell>
        <mxCell id="ZBryR0kt3o8j6Fu_iN5K-44" value="Node = Exec Board, Star Board,&amp;nbsp;&lt;div&gt;Power Board,&amp;nbsp;&lt;/div&gt;&lt;div&gt;Motor Board (H-Fer &amp;amp; TT)&lt;/div&gt;" style="text;html=1;align=center;verticalAlign=middle;resizable=0;points=[];autosize=1;strokeColor=none;fillColor=none;" parent="ZBryR0kt3o8j6Fu_iN5K-48" vertex="1">
          <mxGeometry x="380" y="40" width="200" height="60" as="geometry" />
        </mxCell>
        <mxCell id="ZBryR0kt3o8j6Fu_iN5K-49" value="Node" style="rounded=1;whiteSpace=wrap;html=1;" parent="1" vertex="1">
          <mxGeometry x="256" y="325" width="100" height="40" as="geometry" />
        </mxCell>
        <mxCell id="ZBryR0kt3o8j6Fu_iN5K-50" value="" style="edgeStyle=none;orthogonalLoop=1;jettySize=auto;html=1;endArrow=classic;startArrow=classic;endSize=8;startSize=8;rounded=0;entryX=0;entryY=0.25;entryDx=0;entryDy=0;exitX=1;exitY=0.25;exitDx=0;exitDy=0;" parent="1" target="ZBryR0kt3o8j6Fu_iN5K-25" edge="1">
          <mxGeometry width="100" relative="1" as="geometry">
            <mxPoint x="356" y="335" as="sourcePoint" />
            <mxPoint x="516" y="335" as="targetPoint" />
            <Array as="points" />
          </mxGeometry>
        </mxCell>
        <mxCell id="ZBryR0kt3o8j6Fu_iN5K-51" value="" style="shape=flexArrow;endArrow=classic;startArrow=classic;html=1;rounded=0;exitX=1;exitY=0.75;exitDx=0;exitDy=0;endWidth=9;endSize=5.3625;startWidth=9;startSize=6.120833333333334;width=7.916666666666667;" parent="1" edge="1">
          <mxGeometry width="100" height="100" relative="1" as="geometry">
            <mxPoint x="356" y="355" as="sourcePoint" />
            <mxPoint x="474" y="355" as="targetPoint" />
          </mxGeometry>
        </mxCell>
        <mxCell id="ZBryR0kt3o8j6Fu_iN5K-52" value="câble RJ45&lt;br&gt;Serial Comm" style="text;html=1;align=center;verticalAlign=middle;resizable=0;points=[];autosize=1;strokeColor=none;fillColor=none;" parent="1" vertex="1">
          <mxGeometry x="372" y="315" width="90" height="40" as="geometry" />
        </mxCell>
        <mxCell id="ZBryR0kt3o8j6Fu_iN5K-53" value="" style="edgeStyle=none;orthogonalLoop=1;jettySize=auto;html=1;endArrow=classic;startArrow=classic;endSize=8;startSize=8;rounded=0;entryX=0;entryY=0.25;entryDx=0;entryDy=0;exitX=1;exitY=0.25;exitDx=0;exitDy=0;" parent="1" edge="1">
          <mxGeometry width="100" relative="1" as="geometry">
            <mxPoint x="576" y="335" as="sourcePoint" />
            <mxPoint x="696" y="335" as="targetPoint" />
            <Array as="points" />
          </mxGeometry>
        </mxCell>
        <mxCell id="ZBryR0kt3o8j6Fu_iN5K-54" value="" style="shape=flexArrow;endArrow=classic;startArrow=classic;html=1;rounded=0;exitX=1;exitY=0.75;exitDx=0;exitDy=0;endWidth=9;endSize=5.3625;startWidth=9;startSize=6.120833333333334;width=7.916666666666667;" parent="1" edge="1">
          <mxGeometry width="100" height="100" relative="1" as="geometry">
            <mxPoint x="576" y="355" as="sourcePoint" />
            <mxPoint x="694" y="355" as="targetPoint" />
          </mxGeometry>
        </mxCell>
        <mxCell id="ZBryR0kt3o8j6Fu_iN5K-55" value="Lumière IR&lt;br&gt;BitBus" style="text;html=1;align=center;verticalAlign=middle;resizable=0;points=[];autosize=1;strokeColor=none;fillColor=none;" parent="1" vertex="1">
          <mxGeometry x="599" y="315" width="80" height="40" as="geometry" />
        </mxCell>
        <mxCell id="ZBryR0kt3o8j6Fu_iN5K-57" value="" style="swimlane;startSize=0;" parent="1" vertex="1">
          <mxGeometry x="244" y="275" width="570" height="110" as="geometry" />
        </mxCell>
        <mxCell id="ZBryR0kt3o8j6Fu_iN5K-58" value="" style="endArrow=none;dashed=1;html=1;rounded=0;fillColor=#1ba1e2;strokeColor=#006EAF;" parent="1" edge="1">
          <mxGeometry width="50" height="50" relative="1" as="geometry">
            <mxPoint x="4" y="10" as="sourcePoint" />
            <mxPoint x="824" y="530" as="targetPoint" />
            <Array as="points">
              <mxPoint x="4" y="530" />
            </Array>
          </mxGeometry>
        </mxCell>
        <mxCell id="ZBryR0kt3o8j6Fu_iN5K-61" value="" style="endArrow=none;dashed=1;html=1;rounded=0;fillColor=#1ba1e2;strokeColor=#006EAF;" parent="1" edge="1">
          <mxGeometry width="50" height="50" relative="1" as="geometry">
            <mxPoint x="4" y="10" as="sourcePoint" />
            <mxPoint x="824" y="530" as="targetPoint" />
            <Array as="points">
              <mxPoint x="824" y="10" />
            </Array>
          </mxGeometry>
        </mxCell>
        <mxCell id="ZBryR0kt3o8j6Fu_iN5K-62" value="ClassMCS2" style="rounded=1;whiteSpace=wrap;html=1;" parent="1" vertex="1">
          <mxGeometry x="74" y="689" width="100" height="40" as="geometry" />
        </mxCell>
        <mxCell id="ZBryR0kt3o8j6Fu_iN5K-63" value="Aerotrack Controller" style="rounded=1;whiteSpace=wrap;html=1;" parent="1" vertex="1">
          <mxGeometry x="74" y="809" width="100" height="40" as="geometry" />
        </mxCell>
        <mxCell id="ZBryR0kt3o8j6Fu_iN5K-66" value="" style="shape=flexArrow;endArrow=classic;startArrow=classic;html=1;rounded=0;entryX=0.5;entryY=1;entryDx=0;entryDy=0;exitX=0.5;exitY=0;exitDx=0;exitDy=0;" parent="1" source="ZBryR0kt3o8j6Fu_iN5K-63" target="ZBryR0kt3o8j6Fu_iN5K-62" edge="1">
          <mxGeometry width="100" height="100" relative="1" as="geometry">
            <mxPoint x="394" y="979" as="sourcePoint" />
            <mxPoint x="494" y="879" as="targetPoint" />
          </mxGeometry>
        </mxCell>
        <mxCell id="ZBryR0kt3o8j6Fu_iN5K-67" value="" style="shape=flexArrow;endArrow=classic;startArrow=classic;html=1;rounded=0;entryX=0.25;entryY=1;entryDx=0;entryDy=0;exitX=0.5;exitY=0;exitDx=0;exitDy=0;" parent="1" source="ZBryR0kt3o8j6Fu_iN5K-65" target="ZBryR0kt3o8j6Fu_iN5K-63" edge="1">
          <mxGeometry width="100" height="100" relative="1" as="geometry">
            <mxPoint x="123.5" y="929" as="sourcePoint" />
            <mxPoint x="123.5" y="849" as="targetPoint" />
          </mxGeometry>
        </mxCell>
        <mxCell id="ZBryR0kt3o8j6Fu_iN5K-69" value="&lt;font style=&quot;font-size: 18px;&quot;&gt;&lt;u&gt;Système AMHS 2.0&lt;/u&gt;&lt;/font&gt;" style="text;html=1;align=center;verticalAlign=middle;resizable=0;points=[];autosize=1;strokeColor=none;fillColor=none;" parent="1" vertex="1">
          <mxGeometry x="328" y="609" width="180" height="40" as="geometry" />
        </mxCell>
        <mxCell id="ZBryR0kt3o8j6Fu_iN5K-70" value="&lt;font style=&quot;font-size: 15px;&quot;&gt;&lt;u style=&quot;&quot;&gt;Vision globale des interactions&lt;/u&gt;&lt;/font&gt;" style="text;html=1;align=center;verticalAlign=middle;resizable=0;points=[];autosize=1;strokeColor=none;fillColor=none;" parent="1" vertex="1">
          <mxGeometry x="14" y="649" width="230" height="30" as="geometry" />
        </mxCell>
        <mxCell id="ZBryR0kt3o8j6Fu_iN5K-71" value="&lt;font style=&quot;font-size: 15px;&quot;&gt;&lt;u style=&quot;&quot;&gt;Vision détaillé des interactions: Controller - AEROTRACK&lt;/u&gt;&lt;/font&gt;" style="text;html=1;align=center;verticalAlign=middle;resizable=0;points=[];autosize=1;strokeColor=none;fillColor=none;" parent="1" vertex="1">
          <mxGeometry x="349" y="716.5" width="400" height="30" as="geometry" />
        </mxCell>
        <mxCell id="ZBryR0kt3o8j6Fu_iN5K-72" value="&lt;font style=&quot;font-size: 15px;&quot;&gt;&lt;u style=&quot;&quot;&gt;Vision détaillé des interactions: Controller - CARs&lt;/u&gt;&lt;/font&gt;" style="text;html=1;align=center;verticalAlign=middle;resizable=0;points=[];autosize=1;strokeColor=none;fillColor=none;" parent="1" vertex="1">
          <mxGeometry x="374" y="826.5" width="350" height="30" as="geometry" />
        </mxCell>
        <mxCell id="ZBryR0kt3o8j6Fu_iN5K-73" value="Aerotrack Controller" style="rounded=1;whiteSpace=wrap;html=1;" parent="1" vertex="1">
          <mxGeometry x="256" y="766.5" width="100" height="40" as="geometry" />
        </mxCell>
        <mxCell id="ZBryR0kt3o8j6Fu_iN5K-74" value="Node" style="rounded=1;whiteSpace=wrap;html=1;" parent="1" vertex="1">
          <mxGeometry x="516" y="766.5" width="100" height="40" as="geometry" />
        </mxCell>
        <mxCell id="ZBryR0kt3o8j6Fu_iN5K-77" value="" style="edgeStyle=none;orthogonalLoop=1;jettySize=auto;html=1;endArrow=classic;startArrow=classic;endSize=8;startSize=8;rounded=0;entryX=0;entryY=0.25;entryDx=0;entryDy=0;exitX=1;exitY=0.25;exitDx=0;exitDy=0;" parent="1" source="ZBryR0kt3o8j6Fu_iN5K-73" target="ZBryR0kt3o8j6Fu_iN5K-74" edge="1">
          <mxGeometry width="100" relative="1" as="geometry">
            <mxPoint x="406" y="776.5" as="sourcePoint" />
            <mxPoint x="506" y="776.5" as="targetPoint" />
            <Array as="points" />
          </mxGeometry>
        </mxCell>
        <mxCell id="ZBryR0kt3o8j6Fu_iN5K-78" value="" style="shape=flexArrow;endArrow=classic;startArrow=classic;html=1;rounded=0;entryX=0;entryY=0.75;entryDx=0;entryDy=0;exitX=1;exitY=0.75;exitDx=0;exitDy=0;endWidth=9;endSize=5.3625;startWidth=9;startSize=6.120833333333334;width=7.916666666666667;" parent="1" source="ZBryR0kt3o8j6Fu_iN5K-73" target="ZBryR0kt3o8j6Fu_iN5K-74" edge="1">
          <mxGeometry width="100" height="100" relative="1" as="geometry">
            <mxPoint x="356" y="876.5" as="sourcePoint" />
            <mxPoint x="456" y="776.5" as="targetPoint" />
          </mxGeometry>
        </mxCell>
        <mxCell id="ZBryR0kt3o8j6Fu_iN5K-80" value="" style="swimlane;startSize=0;" parent="1" vertex="1">
          <mxGeometry x="14" y="649" width="230" height="340" as="geometry" />
        </mxCell>
        <mxCell id="ZBryR0kt3o8j6Fu_iN5K-65" value="Aerotrack" style="rounded=1;whiteSpace=wrap;html=1;" parent="ZBryR0kt3o8j6Fu_iN5K-80" vertex="1">
          <mxGeometry x="8" y="280" width="100" height="40" as="geometry" />
        </mxCell>
        <mxCell id="ZBryR0kt3o8j6Fu_iN5K-64" value="CARs" style="rounded=1;whiteSpace=wrap;html=1;" parent="ZBryR0kt3o8j6Fu_iN5K-80" vertex="1">
          <mxGeometry x="118" y="280" width="100" height="40" as="geometry" />
        </mxCell>
        <mxCell id="ZBryR0kt3o8j6Fu_iN5K-81" value="" style="swimlane;startSize=0;" parent="1" vertex="1">
          <mxGeometry x="244" y="716.5" width="570" height="110" as="geometry" />
        </mxCell>
        <mxCell id="ZBryR0kt3o8j6Fu_iN5K-82" value="Node = Exec Board, Star Board,&amp;nbsp;&lt;div&gt;Power Board,&amp;nbsp;&lt;/div&gt;&lt;div&gt;Motor Board (H-Fer &amp;amp; TT)&lt;/div&gt;" style="text;html=1;align=center;verticalAlign=middle;resizable=0;points=[];autosize=1;strokeColor=none;fillColor=none;" parent="ZBryR0kt3o8j6Fu_iN5K-81" vertex="1">
          <mxGeometry x="380" y="40" width="200" height="60" as="geometry" />
        </mxCell>
        <mxCell id="ZBryR0kt3o8j6Fu_iN5K-95" value="Wi-Fi (Python Socket)&amp;nbsp;&lt;div&gt;Bytes (TCP/UDP)&lt;/div&gt;" style="text;html=1;align=center;verticalAlign=middle;resizable=0;points=[];autosize=1;strokeColor=none;fillColor=none;" parent="ZBryR0kt3o8j6Fu_iN5K-81" vertex="1">
          <mxGeometry x="128" y="40" width="140" height="40" as="geometry" />
        </mxCell>
        <mxCell id="ZBryR0kt3o8j6Fu_iN5K-83" value="Aerotrack Controller" style="rounded=1;whiteSpace=wrap;html=1;" parent="1" vertex="1">
          <mxGeometry x="256" y="876.5" width="100" height="40" as="geometry" />
        </mxCell>
        <mxCell id="ZBryR0kt3o8j6Fu_iN5K-84" value="" style="edgeStyle=none;orthogonalLoop=1;jettySize=auto;html=1;endArrow=classic;startArrow=classic;endSize=8;startSize=8;rounded=0;entryX=0;entryY=0.25;entryDx=0;entryDy=0;exitX=1;exitY=0.25;exitDx=0;exitDy=0;" parent="1" target="ZBryR0kt3o8j6Fu_iN5K-76" edge="1">
          <mxGeometry width="100" relative="1" as="geometry">
            <mxPoint x="356" y="886.5" as="sourcePoint" />
            <mxPoint x="475.9999999999998" y="886.5" as="targetPoint" />
            <Array as="points" />
          </mxGeometry>
        </mxCell>
        <mxCell id="ZBryR0kt3o8j6Fu_iN5K-85" value="" style="shape=flexArrow;endArrow=classic;startArrow=classic;html=1;rounded=0;exitX=1;exitY=0.75;exitDx=0;exitDy=0;endWidth=9;endSize=5.3625;startWidth=9;startSize=6.120833333333334;width=7.916666666666667;entryX=0;entryY=0.75;entryDx=0;entryDy=0;" parent="1" target="ZBryR0kt3o8j6Fu_iN5K-76" edge="1">
          <mxGeometry width="100" height="100" relative="1" as="geometry">
            <mxPoint x="356" y="906.5" as="sourcePoint" />
            <mxPoint x="474" y="906.5" as="targetPoint" />
          </mxGeometry>
        </mxCell>
        <mxCell id="ZBryR0kt3o8j6Fu_iN5K-90" value="" style="swimlane;startSize=0;" parent="1" vertex="1">
          <mxGeometry x="244" y="826.5" width="570" height="115" as="geometry" />
        </mxCell>
        <mxCell id="ZBryR0kt3o8j6Fu_iN5K-76" value="Main Board" style="rounded=1;whiteSpace=wrap;html=1;" parent="ZBryR0kt3o8j6Fu_iN5K-90" vertex="1">
          <mxGeometry x="272" y="50" width="100" height="40" as="geometry" />
        </mxCell>
        <mxCell id="ZBryR0kt3o8j6Fu_iN5K-94" value="Wi-Fi (Python Socket)&amp;nbsp;&lt;div&gt;Bytes (TCP/UDP)&lt;/div&gt;" style="text;html=1;align=center;verticalAlign=middle;resizable=0;points=[];autosize=1;strokeColor=none;fillColor=none;" parent="ZBryR0kt3o8j6Fu_iN5K-90" vertex="1">
          <mxGeometry x="128" y="40" width="140" height="40" as="geometry" />
        </mxCell>
        <mxCell id="ZBryR0kt3o8j6Fu_iN5K-91" value="" style="endArrow=none;dashed=1;html=1;rounded=0;fillColor=#1ba1e2;strokeColor=#006EAF;" parent="1" edge="1">
          <mxGeometry width="50" height="50" relative="1" as="geometry">
            <mxPoint x="4" y="609" as="sourcePoint" />
            <mxPoint x="824" y="1029" as="targetPoint" />
            <Array as="points">
              <mxPoint x="4" y="1029" />
            </Array>
          </mxGeometry>
        </mxCell>
        <mxCell id="ZBryR0kt3o8j6Fu_iN5K-92" value="" style="endArrow=none;dashed=1;html=1;rounded=0;fillColor=#1ba1e2;strokeColor=#006EAF;" parent="1" edge="1">
          <mxGeometry width="50" height="50" relative="1" as="geometry">
            <mxPoint x="4" y="609" as="sourcePoint" />
            <mxPoint x="824" y="1029" as="targetPoint" />
            <Array as="points">
              <mxPoint x="824" y="609" />
            </Array>
          </mxGeometry>
        </mxCell>
        <mxCell id="ZBryR0kt3o8j6Fu_iN5K-93" value="" style="shape=flexArrow;endArrow=classic;startArrow=classic;html=1;rounded=0;entryX=0.75;entryY=1;entryDx=0;entryDy=0;exitX=0.5;exitY=0;exitDx=0;exitDy=0;" parent="1" source="ZBryR0kt3o8j6Fu_iN5K-64" target="ZBryR0kt3o8j6Fu_iN5K-63" edge="1">
          <mxGeometry width="100" height="100" relative="1" as="geometry">
            <mxPoint x="142" y="969" as="sourcePoint" />
            <mxPoint x="193.5" y="889" as="targetPoint" />
          </mxGeometry>
        </mxCell>
        <mxCell id="ZBryR0kt3o8j6Fu_iN5K-97" value="&lt;font style=&quot;font-size: 18px;&quot;&gt;&lt;u&gt;Schéma simplifiés des E/S pour chaque carte&lt;/u&gt;&lt;/font&gt;" style="text;html=1;align=center;verticalAlign=middle;resizable=0;points=[];autosize=1;strokeColor=none;fillColor=none;" parent="1" vertex="1">
          <mxGeometry x="1046" y="10" width="390" height="40" as="geometry" />
        </mxCell>
        <mxCell id="ZBryR0kt3o8j6Fu_iN5K-100" value="Exec Board" style="shape=process;whiteSpace=wrap;html=1;backgroundOutline=1;" parent="1" vertex="1">
          <mxGeometry x="1560" y="241" width="120" height="60" as="geometry" />
        </mxCell>
        <mxCell id="ZBryR0kt3o8j6Fu_iN5K-102" value="Station" style="shape=process;whiteSpace=wrap;html=1;backgroundOutline=1;" parent="1" vertex="1">
          <mxGeometry x="1560" y="362" width="120" height="60" as="geometry" />
        </mxCell>
        <mxCell id="ZBryR0kt3o8j6Fu_iN5K-104" value="Charging Board" style="shape=process;whiteSpace=wrap;html=1;backgroundOutline=1;" parent="1" vertex="1">
          <mxGeometry x="1060" y="282.5" width="120" height="60" as="geometry" />
        </mxCell>
        <mxCell id="ZBryR0kt3o8j6Fu_iN5K-105" value="Stepper Board" style="shape=process;whiteSpace=wrap;html=1;backgroundOutline=1;" parent="1" vertex="1">
          <mxGeometry x="1060" y="406.5" width="120" height="61" as="geometry" />
        </mxCell>
        <mxCell id="ZBryR0kt3o8j6Fu_iN5K-108" value="&lt;font style=&quot;font-size: 10px;&quot;&gt;Input&lt;/font&gt;" style="text;html=1;align=center;verticalAlign=middle;resizable=0;points=[];autosize=1;strokeColor=none;fillColor=none;rotation=270;" parent="1" vertex="1">
          <mxGeometry x="1040" y="297.5" width="50" height="30" as="geometry" />
        </mxCell>
        <mxCell id="ZBryR0kt3o8j6Fu_iN5K-109" value="&lt;font style=&quot;font-size: 10px;&quot;&gt;Input&lt;/font&gt;" style="text;html=1;align=center;verticalAlign=middle;resizable=0;points=[];autosize=1;strokeColor=none;fillColor=none;rotation=270;" parent="1" vertex="1">
          <mxGeometry x="1040" y="417.5" width="50" height="30" as="geometry" />
        </mxCell>
        <mxCell id="ZBryR0kt3o8j6Fu_iN5K-110" value="&lt;font style=&quot;font-size: 10px;&quot;&gt;Input&lt;/font&gt;" style="text;html=1;align=center;verticalAlign=middle;resizable=0;points=[];autosize=1;strokeColor=none;fillColor=none;rotation=270;" parent="1" vertex="1">
          <mxGeometry x="1540" y="256" width="50" height="30" as="geometry" />
        </mxCell>
        <mxCell id="ZBryR0kt3o8j6Fu_iN5K-112" value="&lt;font style=&quot;font-size: 10px;&quot;&gt;Input&lt;/font&gt;" style="text;html=1;align=center;verticalAlign=middle;resizable=0;points=[];autosize=1;strokeColor=none;fillColor=none;rotation=270;" parent="1" vertex="1">
          <mxGeometry x="1540" y="377" width="50" height="30" as="geometry" />
        </mxCell>
        <mxCell id="ZBryR0kt3o8j6Fu_iN5K-114" value="&lt;font style=&quot;font-size: 10px;&quot;&gt;Output&lt;/font&gt;" style="text;html=1;align=center;verticalAlign=middle;resizable=0;points=[];autosize=1;strokeColor=none;fillColor=none;rotation=90;" parent="1" vertex="1">
          <mxGeometry x="1650" y="256" width="50" height="30" as="geometry" />
        </mxCell>
        <mxCell id="ZBryR0kt3o8j6Fu_iN5K-115" value="&lt;font style=&quot;font-size: 10px;&quot;&gt;Output&lt;/font&gt;" style="text;html=1;align=center;verticalAlign=middle;resizable=0;points=[];autosize=1;strokeColor=none;fillColor=none;rotation=90;" parent="1" vertex="1">
          <mxGeometry x="1150" y="417.5" width="50" height="30" as="geometry" />
        </mxCell>
        <mxCell id="ZBryR0kt3o8j6Fu_iN5K-117" value="&lt;font style=&quot;font-size: 10px;&quot;&gt;Output&lt;/font&gt;" style="text;html=1;align=center;verticalAlign=middle;resizable=0;points=[];autosize=1;strokeColor=none;fillColor=none;rotation=90;" parent="1" vertex="1">
          <mxGeometry x="1650" y="377" width="50" height="30" as="geometry" />
        </mxCell>
        <mxCell id="ZBryR0kt3o8j6Fu_iN5K-120" value="&lt;font style=&quot;font-size: 10px;&quot;&gt;Output&lt;/font&gt;" style="text;html=1;align=center;verticalAlign=middle;resizable=0;points=[];autosize=1;strokeColor=none;fillColor=none;rotation=90;" parent="1" vertex="1">
          <mxGeometry x="1151" y="297.5" width="50" height="30" as="geometry" />
        </mxCell>
        <mxCell id="ZBryR0kt3o8j6Fu_iN5K-133" value="" style="endArrow=classic;html=1;rounded=0;" parent="1" edge="1">
          <mxGeometry relative="1" as="geometry">
            <mxPoint x="1450" y="251.79999999999995" as="sourcePoint" />
            <mxPoint x="1560" y="251.79999999999995" as="targetPoint" />
          </mxGeometry>
        </mxCell>
        <mxCell id="ZBryR0kt3o8j6Fu_iN5K-134" value="Bytes CMD" style="edgeLabel;resizable=0;html=1;;align=center;verticalAlign=middle;" parent="ZBryR0kt3o8j6Fu_iN5K-133" connectable="0" vertex="1">
          <mxGeometry relative="1" as="geometry" />
        </mxCell>
        <mxCell id="ZBryR0kt3o8j6Fu_iN5K-136" value="" style="endArrow=classic;html=1;rounded=0;" parent="1" edge="1">
          <mxGeometry relative="1" as="geometry">
            <mxPoint x="1450" y="270.79999999999995" as="sourcePoint" />
            <mxPoint x="1560" y="270.79999999999995" as="targetPoint" />
          </mxGeometry>
        </mxCell>
        <mxCell id="ZBryR0kt3o8j6Fu_iN5K-137" value="5V" style="edgeLabel;resizable=0;html=1;;align=center;verticalAlign=middle;" parent="ZBryR0kt3o8j6Fu_iN5K-136" connectable="0" vertex="1">
          <mxGeometry relative="1" as="geometry" />
        </mxCell>
        <mxCell id="ZBryR0kt3o8j6Fu_iN5K-139" value="" style="endArrow=classic;html=1;rounded=0;" parent="1" edge="1">
          <mxGeometry relative="1" as="geometry">
            <mxPoint x="1450" y="291.79999999999995" as="sourcePoint" />
            <mxPoint x="1560" y="291.79999999999995" as="targetPoint" />
          </mxGeometry>
        </mxCell>
        <mxCell id="ZBryR0kt3o8j6Fu_iN5K-140" value="CLK" style="edgeLabel;resizable=0;html=1;;align=center;verticalAlign=middle;" parent="ZBryR0kt3o8j6Fu_iN5K-139" connectable="0" vertex="1">
          <mxGeometry relative="1" as="geometry" />
        </mxCell>
        <mxCell id="ZBryR0kt3o8j6Fu_iN5K-181" value="" style="endArrow=classic;html=1;rounded=0;" parent="1" edge="1">
          <mxGeometry relative="1" as="geometry">
            <mxPoint x="950" y="412.29999999999995" as="sourcePoint" />
            <mxPoint x="1060" y="412.29999999999995" as="targetPoint" />
          </mxGeometry>
        </mxCell>
        <mxCell id="ZBryR0kt3o8j6Fu_iN5K-182" value="CLK" style="edgeLabel;resizable=0;html=1;;align=center;verticalAlign=middle;" parent="ZBryR0kt3o8j6Fu_iN5K-181" connectable="0" vertex="1">
          <mxGeometry relative="1" as="geometry" />
        </mxCell>
        <mxCell id="ZBryR0kt3o8j6Fu_iN5K-184" value="" style="endArrow=classic;html=1;rounded=0;" parent="1" edge="1">
          <mxGeometry relative="1" as="geometry">
            <mxPoint x="950" y="424.29999999999995" as="sourcePoint" />
            <mxPoint x="1060" y="424.29999999999995" as="targetPoint" />
          </mxGeometry>
        </mxCell>
        <mxCell id="ZBryR0kt3o8j6Fu_iN5K-185" value="Enable" style="edgeLabel;resizable=0;html=1;;align=center;verticalAlign=middle;" parent="ZBryR0kt3o8j6Fu_iN5K-184" connectable="0" vertex="1">
          <mxGeometry relative="1" as="geometry" />
        </mxCell>
        <mxCell id="ZBryR0kt3o8j6Fu_iN5K-187" value="" style="endArrow=classic;html=1;rounded=0;" parent="1" edge="1">
          <mxGeometry relative="1" as="geometry">
            <mxPoint x="950" y="436.29999999999995" as="sourcePoint" />
            <mxPoint x="1060" y="436.29999999999995" as="targetPoint" />
          </mxGeometry>
        </mxCell>
        <mxCell id="ZBryR0kt3o8j6Fu_iN5K-188" value="Direction" style="edgeLabel;resizable=0;html=1;;align=center;verticalAlign=middle;" parent="ZBryR0kt3o8j6Fu_iN5K-187" connectable="0" vertex="1">
          <mxGeometry relative="1" as="geometry" />
        </mxCell>
        <mxCell id="ZBryR0kt3o8j6Fu_iN5K-190" value="" style="endArrow=classic;html=1;rounded=0;" parent="1" edge="1">
          <mxGeometry relative="1" as="geometry">
            <mxPoint x="950" y="448.29999999999995" as="sourcePoint" />
            <mxPoint x="1060" y="448.29999999999995" as="targetPoint" />
          </mxGeometry>
        </mxCell>
        <mxCell id="ZBryR0kt3o8j6Fu_iN5K-191" value="V Bat" style="edgeLabel;resizable=0;html=1;;align=center;verticalAlign=middle;" parent="ZBryR0kt3o8j6Fu_iN5K-190" connectable="0" vertex="1">
          <mxGeometry relative="1" as="geometry" />
        </mxCell>
        <mxCell id="ZBryR0kt3o8j6Fu_iN5K-205" value="" style="endArrow=classic;html=1;rounded=0;" parent="1" edge="1">
          <mxGeometry relative="1" as="geometry">
            <mxPoint x="1180" y="313.1" as="sourcePoint" />
            <mxPoint x="1290" y="313.1" as="targetPoint" />
          </mxGeometry>
        </mxCell>
        <mxCell id="ZBryR0kt3o8j6Fu_iN5K-206" value="V Bat (~ +15V)" style="edgeLabel;resizable=0;html=1;;align=center;verticalAlign=middle;" parent="ZBryR0kt3o8j6Fu_iN5K-205" connectable="0" vertex="1">
          <mxGeometry relative="1" as="geometry" />
        </mxCell>
        <mxCell id="ZBryR0kt3o8j6Fu_iN5K-217" value="" style="endArrow=classic;html=1;rounded=0;" parent="1" edge="1">
          <mxGeometry relative="1" as="geometry">
            <mxPoint x="1180" y="132.01" as="sourcePoint" />
            <mxPoint x="1290" y="132.01" as="targetPoint" />
          </mxGeometry>
        </mxCell>
        <mxCell id="ZBryR0kt3o8j6Fu_iN5K-218" value="CMD Moteurs" style="edgeLabel;resizable=0;html=1;;align=center;verticalAlign=middle;" parent="ZBryR0kt3o8j6Fu_iN5K-217" connectable="0" vertex="1">
          <mxGeometry relative="1" as="geometry" />
        </mxCell>
        <mxCell id="ZBryR0kt3o8j6Fu_iN5K-219" value="" style="endArrow=classic;html=1;rounded=0;" parent="1" edge="1">
          <mxGeometry relative="1" as="geometry">
            <mxPoint x="1180" y="152.01" as="sourcePoint" />
            <mxPoint x="1290" y="152.01" as="targetPoint" />
          </mxGeometry>
        </mxCell>
        <mxCell id="ZBryR0kt3o8j6Fu_iN5K-220" value="State Bytes" style="edgeLabel;resizable=0;html=1;;align=center;verticalAlign=middle;" parent="ZBryR0kt3o8j6Fu_iN5K-219" connectable="0" vertex="1">
          <mxGeometry relative="1" as="geometry" />
        </mxCell>
        <mxCell id="ZBryR0kt3o8j6Fu_iN5K-221" value="" style="endArrow=classic;html=1;rounded=0;" parent="1" edge="1">
          <mxGeometry relative="1" as="geometry">
            <mxPoint x="1180" y="171.01" as="sourcePoint" />
            <mxPoint x="1290" y="171.01" as="targetPoint" />
          </mxGeometry>
        </mxCell>
        <mxCell id="ZBryR0kt3o8j6Fu_iN5K-222" value="Position Bytes" style="edgeLabel;resizable=0;html=1;;align=center;verticalAlign=middle;" parent="ZBryR0kt3o8j6Fu_iN5K-221" connectable="0" vertex="1">
          <mxGeometry relative="1" as="geometry" />
        </mxCell>
        <mxCell id="ZBryR0kt3o8j6Fu_iN5K-223" value="" style="endArrow=classic;html=1;rounded=0;" parent="1" edge="1">
          <mxGeometry relative="1" as="geometry">
            <mxPoint x="1180" y="192.01" as="sourcePoint" />
            <mxPoint x="1290" y="192.01" as="targetPoint" />
          </mxGeometry>
        </mxCell>
        <mxCell id="ZBryR0kt3o8j6Fu_iN5K-224" value="Solenoide" style="edgeLabel;resizable=0;html=1;;align=center;verticalAlign=middle;" parent="ZBryR0kt3o8j6Fu_iN5K-223" connectable="0" vertex="1">
          <mxGeometry relative="1" as="geometry" />
        </mxCell>
        <mxCell id="ZBryR0kt3o8j6Fu_iN5K-249" value="" style="endArrow=classic;html=1;rounded=0;" parent="1" edge="1">
          <mxGeometry relative="1" as="geometry">
            <mxPoint x="1180" y="411.51" as="sourcePoint" />
            <mxPoint x="1290" y="411.51" as="targetPoint" />
          </mxGeometry>
        </mxCell>
        <mxCell id="ZBryR0kt3o8j6Fu_iN5K-250" value="A1" style="edgeLabel;resizable=0;html=1;;align=center;verticalAlign=middle;" parent="ZBryR0kt3o8j6Fu_iN5K-249" connectable="0" vertex="1">
          <mxGeometry relative="1" as="geometry" />
        </mxCell>
        <mxCell id="ZBryR0kt3o8j6Fu_iN5K-251" value="" style="endArrow=classic;html=1;rounded=0;" parent="1" edge="1">
          <mxGeometry relative="1" as="geometry">
            <mxPoint x="1180" y="427.51" as="sourcePoint" />
            <mxPoint x="1290" y="427.51" as="targetPoint" />
          </mxGeometry>
        </mxCell>
        <mxCell id="ZBryR0kt3o8j6Fu_iN5K-252" value="A2" style="edgeLabel;resizable=0;html=1;;align=center;verticalAlign=middle;" parent="ZBryR0kt3o8j6Fu_iN5K-251" connectable="0" vertex="1">
          <mxGeometry relative="1" as="geometry" />
        </mxCell>
        <mxCell id="ZBryR0kt3o8j6Fu_iN5K-253" value="" style="endArrow=classic;html=1;rounded=0;" parent="1" edge="1">
          <mxGeometry relative="1" as="geometry">
            <mxPoint x="1180" y="443.51" as="sourcePoint" />
            <mxPoint x="1290" y="443.51" as="targetPoint" />
          </mxGeometry>
        </mxCell>
        <mxCell id="ZBryR0kt3o8j6Fu_iN5K-254" value="B1" style="edgeLabel;resizable=0;html=1;;align=center;verticalAlign=middle;" parent="ZBryR0kt3o8j6Fu_iN5K-253" connectable="0" vertex="1">
          <mxGeometry relative="1" as="geometry" />
        </mxCell>
        <mxCell id="ZBryR0kt3o8j6Fu_iN5K-255" value="" style="endArrow=classic;html=1;rounded=0;" parent="1" edge="1">
          <mxGeometry relative="1" as="geometry">
            <mxPoint x="1180" y="459.51" as="sourcePoint" />
            <mxPoint x="1290" y="459.51" as="targetPoint" />
          </mxGeometry>
        </mxCell>
        <mxCell id="ZBryR0kt3o8j6Fu_iN5K-256" value="B2" style="edgeLabel;resizable=0;html=1;;align=center;verticalAlign=middle;" parent="ZBryR0kt3o8j6Fu_iN5K-255" connectable="0" vertex="1">
          <mxGeometry relative="1" as="geometry" />
        </mxCell>
        <mxCell id="ZBryR0kt3o8j6Fu_iN5K-281" value="" style="swimlane;startSize=0;fillColor=#f0a30a;fontColor=#000000;strokeColor=#BD7000;" parent="1" vertex="1">
          <mxGeometry x="930" y="101" width="380" height="141" as="geometry" />
        </mxCell>
        <mxCell id="ZBryR0kt3o8j6Fu_iN5K-99" value="Main Board" style="shape=process;whiteSpace=wrap;html=1;backgroundOutline=1;" parent="ZBryR0kt3o8j6Fu_iN5K-281" vertex="1">
          <mxGeometry x="130" y="10" width="120" height="120" as="geometry" />
        </mxCell>
        <mxCell id="ZBryR0kt3o8j6Fu_iN5K-121" value="" style="endArrow=classic;html=1;rounded=0;" parent="ZBryR0kt3o8j6Fu_iN5K-281" edge="1">
          <mxGeometry relative="1" as="geometry">
            <mxPoint x="20" y="107.71000000000001" as="sourcePoint" />
            <mxPoint x="130" y="107.71000000000001" as="targetPoint" />
          </mxGeometry>
        </mxCell>
        <mxCell id="ZBryR0kt3o8j6Fu_iN5K-122" value="Bytes CMD" style="edgeLabel;resizable=0;html=1;;align=center;verticalAlign=middle;" parent="ZBryR0kt3o8j6Fu_iN5K-121" connectable="0" vertex="1">
          <mxGeometry relative="1" as="geometry">
            <mxPoint y="2" as="offset" />
          </mxGeometry>
        </mxCell>
        <mxCell id="ZBryR0kt3o8j6Fu_iN5K-124" value="" style="endArrow=classic;html=1;rounded=0;" parent="ZBryR0kt3o8j6Fu_iN5K-281" edge="1">
          <mxGeometry relative="1" as="geometry">
            <mxPoint x="20" y="47.71000000000001" as="sourcePoint" />
            <mxPoint x="130" y="47.71000000000001" as="targetPoint" />
          </mxGeometry>
        </mxCell>
        <mxCell id="k7Ih-XZEC3zFsjEp1vER-1" value="IR (CNY70)" style="edgeLabel;html=1;align=center;verticalAlign=middle;resizable=0;points=[];" parent="ZBryR0kt3o8j6Fu_iN5K-124" vertex="1" connectable="0">
          <mxGeometry x="0.0018" y="2" relative="1" as="geometry">
            <mxPoint as="offset" />
          </mxGeometry>
        </mxCell>
        <mxCell id="ZBryR0kt3o8j6Fu_iN5K-127" value="" style="endArrow=classic;html=1;rounded=0;" parent="ZBryR0kt3o8j6Fu_iN5K-281" edge="1">
          <mxGeometry relative="1" as="geometry">
            <mxPoint x="20" y="59.71000000000001" as="sourcePoint" />
            <mxPoint x="130" y="59.71000000000001" as="targetPoint" />
          </mxGeometry>
        </mxCell>
        <mxCell id="ZBryR0kt3o8j6Fu_iN5K-128" value="Nest" style="edgeLabel;resizable=0;html=1;;align=center;verticalAlign=middle;" parent="ZBryR0kt3o8j6Fu_iN5K-127" connectable="0" vertex="1">
          <mxGeometry relative="1" as="geometry" />
        </mxCell>
        <mxCell id="ZBryR0kt3o8j6Fu_iN5K-130" value="" style="endArrow=classic;html=1;rounded=0;" parent="ZBryR0kt3o8j6Fu_iN5K-281" edge="1">
          <mxGeometry relative="1" as="geometry">
            <mxPoint x="20" y="71.71000000000001" as="sourcePoint" />
            <mxPoint x="130" y="71.71000000000001" as="targetPoint" />
          </mxGeometry>
        </mxCell>
        <mxCell id="ZBryR0kt3o8j6Fu_iN5K-131" value="RFID Reader" style="edgeLabel;resizable=0;html=1;;align=center;verticalAlign=middle;" parent="ZBryR0kt3o8j6Fu_iN5K-130" connectable="0" vertex="1">
          <mxGeometry relative="1" as="geometry" />
        </mxCell>
        <mxCell id="k7Ih-XZEC3zFsjEp1vER-4" value="" style="endArrow=classic;html=1;rounded=0;" parent="ZBryR0kt3o8j6Fu_iN5K-281" edge="1">
          <mxGeometry relative="1" as="geometry">
            <mxPoint x="20" y="83.71000000000001" as="sourcePoint" />
            <mxPoint x="130" y="83.71000000000001" as="targetPoint" />
          </mxGeometry>
        </mxCell>
        <mxCell id="k7Ih-XZEC3zFsjEp1vER-5" value="Station Sensor" style="edgeLabel;resizable=0;html=1;;align=center;verticalAlign=middle;" parent="k7Ih-XZEC3zFsjEp1vER-4" connectable="0" vertex="1">
          <mxGeometry relative="1" as="geometry" />
        </mxCell>
        <mxCell id="k7Ih-XZEC3zFsjEp1vER-2" value="" style="endArrow=classic;html=1;rounded=0;" parent="ZBryR0kt3o8j6Fu_iN5K-281" edge="1">
          <mxGeometry relative="1" as="geometry">
            <mxPoint x="20" y="122.71000000000001" as="sourcePoint" />
            <mxPoint x="130" y="122.71000000000001" as="targetPoint" />
          </mxGeometry>
        </mxCell>
        <mxCell id="k7Ih-XZEC3zFsjEp1vER-3" value="Bumper" style="edgeLabel;resizable=0;html=1;;align=center;verticalAlign=middle;" parent="k7Ih-XZEC3zFsjEp1vER-2" connectable="0" vertex="1">
          <mxGeometry relative="1" as="geometry">
            <mxPoint x="8" as="offset" />
          </mxGeometry>
        </mxCell>
        <mxCell id="k7Ih-XZEC3zFsjEp1vER-6" value="" style="endArrow=classic;html=1;rounded=0;" parent="ZBryR0kt3o8j6Fu_iN5K-281" edge="1">
          <mxGeometry relative="1" as="geometry">
            <mxPoint x="20" y="95.71000000000001" as="sourcePoint" />
            <mxPoint x="130" y="95.71000000000001" as="targetPoint" />
          </mxGeometry>
        </mxCell>
        <mxCell id="k7Ih-XZEC3zFsjEp1vER-7" value="V Bat" style="edgeLabel;resizable=0;html=1;;align=center;verticalAlign=middle;" parent="k7Ih-XZEC3zFsjEp1vER-6" connectable="0" vertex="1">
          <mxGeometry relative="1" as="geometry">
            <mxPoint x="-3" as="offset" />
          </mxGeometry>
        </mxCell>
        <mxCell id="k7Ih-XZEC3zFsjEp1vER-8" value="" style="endArrow=classic;html=1;rounded=0;" parent="ZBryR0kt3o8j6Fu_iN5K-281" edge="1">
          <mxGeometry relative="1" as="geometry">
            <mxPoint x="20" y="20.710000000000008" as="sourcePoint" />
            <mxPoint x="130" y="20.710000000000008" as="targetPoint" />
          </mxGeometry>
        </mxCell>
        <mxCell id="k7Ih-XZEC3zFsjEp1vER-9" value="Temperature Bat" style="edgeLabel;resizable=0;html=1;;align=center;verticalAlign=middle;" parent="k7Ih-XZEC3zFsjEp1vER-8" connectable="0" vertex="1">
          <mxGeometry relative="1" as="geometry" />
        </mxCell>
        <mxCell id="k7Ih-XZEC3zFsjEp1vER-10" value="" style="endArrow=classic;html=1;rounded=0;" parent="ZBryR0kt3o8j6Fu_iN5K-281" edge="1">
          <mxGeometry relative="1" as="geometry">
            <mxPoint x="20" y="32.71000000000001" as="sourcePoint" />
            <mxPoint x="130" y="32.71000000000001" as="targetPoint" />
          </mxGeometry>
        </mxCell>
        <mxCell id="k7Ih-XZEC3zFsjEp1vER-11" value="&lt;span style=&quot;&quot;&gt;&lt;font&gt;+43V&lt;/font&gt;&lt;/span&gt;" style="edgeLabel;resizable=0;html=1;;align=center;verticalAlign=middle;labelBackgroundColor=default;" parent="k7Ih-XZEC3zFsjEp1vER-10" connectable="0" vertex="1">
          <mxGeometry relative="1" as="geometry">
            <mxPoint x="-1" as="offset" />
          </mxGeometry>
        </mxCell>
        <mxCell id="ZBryR0kt3o8j6Fu_iN5K-119" value="&lt;font style=&quot;font-size: 10px;&quot;&gt;Output&lt;/font&gt;" style="text;html=1;align=center;verticalAlign=middle;resizable=0;points=[];autosize=1;strokeColor=none;fillColor=none;rotation=90;" parent="ZBryR0kt3o8j6Fu_iN5K-281" vertex="1">
          <mxGeometry x="220" y="55.5" width="50" height="30" as="geometry" />
        </mxCell>
        <mxCell id="ZBryR0kt3o8j6Fu_iN5K-106" value="&lt;font style=&quot;font-size: 10px;&quot;&gt;Input&lt;/font&gt;" style="text;html=1;align=center;verticalAlign=middle;resizable=0;points=[];autosize=1;strokeColor=none;fillColor=none;rotation=270;" parent="ZBryR0kt3o8j6Fu_iN5K-281" vertex="1">
          <mxGeometry x="110" y="55.5" width="50" height="30" as="geometry" />
        </mxCell>
        <mxCell id="ZBryR0kt3o8j6Fu_iN5K-282" value="" style="swimlane;startSize=0;fillColor=#b0e3e6;strokeColor=#0e8088;" parent="1" vertex="1">
          <mxGeometry x="1430" y="220.5" width="380" height="99.5" as="geometry" />
        </mxCell>
        <mxCell id="ZBryR0kt3o8j6Fu_iN5K-283" value="" style="swimlane;startSize=0;fillColor=#b0e3e6;strokeColor=#0e8088;" parent="1" vertex="1">
          <mxGeometry x="1430" y="340" width="380" height="100" as="geometry" />
        </mxCell>
        <mxCell id="ZBryR0kt3o8j6Fu_iN5K-284" value="" style="swimlane;startSize=0;fillColor=#b0e3e6;strokeColor=#0e8088;" parent="1" vertex="1">
          <mxGeometry x="1430" y="460" width="380" height="100" as="geometry" />
        </mxCell>
        <mxCell id="ZBryR0kt3o8j6Fu_iN5K-286" value="" style="swimlane;startSize=0;fillColor=#f0a30a;fontColor=#000000;strokeColor=#BD7000;" parent="1" vertex="1">
          <mxGeometry x="930" y="382" width="380" height="109.5" as="geometry" />
        </mxCell>
        <mxCell id="k7Ih-XZEC3zFsjEp1vER-16" value="&lt;font style=&quot;font-size: 7px;&quot;&gt;2 fils par pôle&lt;/font&gt;" style="text;html=1;align=center;verticalAlign=middle;resizable=0;points=[];autosize=1;strokeColor=none;dashed=1;dashPattern=12 12;rotation=90;" parent="ZBryR0kt3o8j6Fu_iN5K-286" vertex="1">
          <mxGeometry x="340" y="38.25" width="70" height="30" as="geometry" />
        </mxCell>
        <mxCell id="ZBryR0kt3o8j6Fu_iN5K-287" value="" style="swimlane;startSize=0;fillColor=#f0a30a;fontColor=#000000;strokeColor=#BD7000;" parent="1" vertex="1">
          <mxGeometry x="930" y="262" width="380" height="101" as="geometry" />
        </mxCell>
        <mxCell id="ZBryR0kt3o8j6Fu_iN5K-196" value="" style="endArrow=classic;html=1;rounded=0;" parent="ZBryR0kt3o8j6Fu_iN5K-287" edge="1">
          <mxGeometry relative="1" as="geometry">
            <mxPoint x="20" y="62.140000000000015" as="sourcePoint" />
            <mxPoint x="130" y="62.140000000000015" as="targetPoint" />
          </mxGeometry>
        </mxCell>
        <mxCell id="ZBryR0kt3o8j6Fu_iN5K-197" value="\Enable" style="edgeLabel;resizable=0;html=1;;align=center;verticalAlign=middle;" parent="ZBryR0kt3o8j6Fu_iN5K-196" connectable="0" vertex="1">
          <mxGeometry relative="1" as="geometry" />
        </mxCell>
        <mxCell id="ZBryR0kt3o8j6Fu_iN5K-193" value="" style="endArrow=classic;html=1;rounded=0;" parent="ZBryR0kt3o8j6Fu_iN5K-287" edge="1">
          <mxGeometry relative="1" as="geometry">
            <mxPoint x="20" y="41.32000000000002" as="sourcePoint" />
            <mxPoint x="130" y="41.32000000000002" as="targetPoint" />
          </mxGeometry>
        </mxCell>
        <mxCell id="ZBryR0kt3o8j6Fu_iN5K-194" value="+43V" style="edgeLabel;resizable=0;html=1;;align=center;verticalAlign=middle;" parent="ZBryR0kt3o8j6Fu_iN5K-193" connectable="0" vertex="1">
          <mxGeometry relative="1" as="geometry" />
        </mxCell>
        <mxCell id="k7Ih-XZEC3zFsjEp1vER-12" value="" style="endArrow=classic;html=1;rounded=0;" parent="1" edge="1">
          <mxGeometry relative="1" as="geometry">
            <mxPoint x="1180" y="212" as="sourcePoint" />
            <mxPoint x="1290" y="212" as="targetPoint" />
          </mxGeometry>
        </mxCell>
        <mxCell id="k7Ih-XZEC3zFsjEp1vER-13" value="State LEDs" style="edgeLabel;resizable=0;html=1;;align=center;verticalAlign=middle;" parent="k7Ih-XZEC3zFsjEp1vER-12" connectable="0" vertex="1">
          <mxGeometry relative="1" as="geometry" />
        </mxCell>
        <mxCell id="k7Ih-XZEC3zFsjEp1vER-14" value="" style="endArrow=classic;html=1;rounded=0;" parent="1" edge="1">
          <mxGeometry relative="1" as="geometry">
            <mxPoint x="950" y="460.5" as="sourcePoint" />
            <mxPoint x="1060" y="460.5" as="targetPoint" />
          </mxGeometry>
        </mxCell>
        <mxCell id="k7Ih-XZEC3zFsjEp1vER-15" value="+5V" style="edgeLabel;resizable=0;html=1;;align=center;verticalAlign=middle;" parent="k7Ih-XZEC3zFsjEp1vER-14" connectable="0" vertex="1">
          <mxGeometry relative="1" as="geometry" />
        </mxCell>
        <mxCell id="y7egkGyyee0WCaGfkhkc-4" value="Power Board" style="shape=process;whiteSpace=wrap;html=1;backgroundOutline=1;" vertex="1" parent="1">
          <mxGeometry x="1560" y="121" width="120" height="60" as="geometry" />
        </mxCell>
        <mxCell id="y7egkGyyee0WCaGfkhkc-5" value="&lt;font style=&quot;font-size: 10px;&quot;&gt;Input&lt;/font&gt;" style="text;html=1;align=center;verticalAlign=middle;resizable=0;points=[];autosize=1;strokeColor=none;fillColor=none;rotation=270;" vertex="1" parent="1">
          <mxGeometry x="1540" y="136" width="50" height="30" as="geometry" />
        </mxCell>
        <mxCell id="y7egkGyyee0WCaGfkhkc-6" value="&lt;font style=&quot;font-size: 10px;&quot;&gt;Output&lt;/font&gt;" style="text;html=1;align=center;verticalAlign=middle;resizable=0;points=[];autosize=1;strokeColor=none;fillColor=none;rotation=90;" vertex="1" parent="1">
          <mxGeometry x="1650" y="136" width="50" height="30" as="geometry" />
        </mxCell>
        <mxCell id="y7egkGyyee0WCaGfkhkc-23" value="" style="swimlane;startSize=0;fillColor=#b0e3e6;strokeColor=#0e8088;" vertex="1" parent="1">
          <mxGeometry x="1430" y="100.5" width="380" height="99.5" as="geometry" />
        </mxCell>
        <mxCell id="y7egkGyyee0WCaGfkhkc-7" value="" style="endArrow=classic;html=1;rounded=0;" edge="1" parent="y7egkGyyee0WCaGfkhkc-23">
          <mxGeometry relative="1" as="geometry">
            <mxPoint x="20" y="50.219999999999914" as="sourcePoint" />
            <mxPoint x="130" y="50.219999999999914" as="targetPoint" />
          </mxGeometry>
        </mxCell>
        <mxCell id="y7egkGyyee0WCaGfkhkc-8" value="+43V" style="edgeLabel;resizable=0;html=1;;align=center;verticalAlign=middle;" connectable="0" vertex="1" parent="y7egkGyyee0WCaGfkhkc-7">
          <mxGeometry relative="1" as="geometry" />
        </mxCell>
        <mxCell id="y7egkGyyee0WCaGfkhkc-25" value="AEROTRACK" style="swimlane;whiteSpace=wrap;html=1;fillColor=#1ba1e2;fontColor=#ffffff;strokeColor=#006EAF;" vertex="1" parent="1">
          <mxGeometry x="1410" y="58.5" width="420" height="651.5" as="geometry" />
        </mxCell>
        <mxCell id="ZBryR0kt3o8j6Fu_iN5K-225" value="" style="endArrow=classic;html=1;rounded=0;" parent="y7egkGyyee0WCaGfkhkc-25" edge="1">
          <mxGeometry relative="1" as="geometry">
            <mxPoint x="270" y="221.49999999999994" as="sourcePoint" />
            <mxPoint x="380" y="221.49999999999994" as="targetPoint" />
          </mxGeometry>
        </mxCell>
        <mxCell id="ZBryR0kt3o8j6Fu_iN5K-226" value="State Bytes" style="edgeLabel;resizable=0;html=1;;align=center;verticalAlign=middle;" parent="ZBryR0kt3o8j6Fu_iN5K-225" connectable="0" vertex="1">
          <mxGeometry relative="1" as="geometry" />
        </mxCell>
        <mxCell id="y7egkGyyee0WCaGfkhkc-32" value="" style="endArrow=classic;html=1;rounded=0;" edge="1" parent="y7egkGyyee0WCaGfkhkc-25">
          <mxGeometry relative="1" as="geometry">
            <mxPoint x="270" y="201.5" as="sourcePoint" />
            <mxPoint x="380" y="201.5" as="targetPoint" />
          </mxGeometry>
        </mxCell>
        <mxCell id="y7egkGyyee0WCaGfkhkc-33" value="State LEDs" style="edgeLabel;resizable=0;html=1;;align=center;verticalAlign=middle;" connectable="0" vertex="1" parent="y7egkGyyee0WCaGfkhkc-32">
          <mxGeometry relative="1" as="geometry" />
        </mxCell>
        <mxCell id="y7egkGyyee0WCaGfkhkc-34" value="" style="endArrow=classic;html=1;rounded=0;" edge="1" parent="y7egkGyyee0WCaGfkhkc-25">
          <mxGeometry relative="1" as="geometry">
            <mxPoint x="270" y="341.49999999999994" as="sourcePoint" />
            <mxPoint x="380" y="341.49999999999994" as="targetPoint" />
          </mxGeometry>
        </mxCell>
        <mxCell id="y7egkGyyee0WCaGfkhkc-35" value="+43V" style="edgeLabel;resizable=0;html=1;;align=center;verticalAlign=middle;" connectable="0" vertex="1" parent="y7egkGyyee0WCaGfkhkc-34">
          <mxGeometry relative="1" as="geometry" />
        </mxCell>
        <mxCell id="y7egkGyyee0WCaGfkhkc-36" value="" style="endArrow=classic;html=1;rounded=0;" edge="1" parent="y7egkGyyee0WCaGfkhkc-25">
          <mxGeometry relative="1" as="geometry">
            <mxPoint x="270" y="321.5" as="sourcePoint" />
            <mxPoint x="380" y="321.5" as="targetPoint" />
          </mxGeometry>
        </mxCell>
        <mxCell id="y7egkGyyee0WCaGfkhkc-37" value="State LEDs" style="edgeLabel;resizable=0;html=1;;align=center;verticalAlign=middle;" connectable="0" vertex="1" parent="y7egkGyyee0WCaGfkhkc-36">
          <mxGeometry relative="1" as="geometry" />
        </mxCell>
        <mxCell id="y7egkGyyee0WCaGfkhkc-30" value="" style="endArrow=classic;html=1;rounded=0;" edge="1" parent="y7egkGyyee0WCaGfkhkc-25">
          <mxGeometry relative="1" as="geometry">
            <mxPoint x="39" y="340.5" as="sourcePoint" />
            <mxPoint x="149" y="340.5" as="targetPoint" />
          </mxGeometry>
        </mxCell>
        <mxCell id="y7egkGyyee0WCaGfkhkc-31" value="5V" style="edgeLabel;resizable=0;html=1;;align=center;verticalAlign=middle;" connectable="0" vertex="1" parent="y7egkGyyee0WCaGfkhkc-30">
          <mxGeometry relative="1" as="geometry" />
        </mxCell>
        <mxCell id="y7egkGyyee0WCaGfkhkc-28" value="" style="endArrow=classic;html=1;rounded=0;" edge="1" parent="y7egkGyyee0WCaGfkhkc-25">
          <mxGeometry relative="1" as="geometry">
            <mxPoint x="40" y="321.5" as="sourcePoint" />
            <mxPoint x="150" y="321.5" as="targetPoint" />
          </mxGeometry>
        </mxCell>
        <mxCell id="y7egkGyyee0WCaGfkhkc-29" value="+43V" style="edgeLabel;resizable=0;html=1;;align=center;verticalAlign=middle;" connectable="0" vertex="1" parent="y7egkGyyee0WCaGfkhkc-28">
          <mxGeometry relative="1" as="geometry" />
        </mxCell>
        <mxCell id="y7egkGyyee0WCaGfkhkc-17" value="" style="endArrow=classic;html=1;rounded=0;" edge="1" parent="y7egkGyyee0WCaGfkhkc-25">
          <mxGeometry relative="1" as="geometry">
            <mxPoint x="270" y="86.49999999999994" as="sourcePoint" />
            <mxPoint x="380" y="86.69" as="targetPoint" />
          </mxGeometry>
        </mxCell>
        <mxCell id="y7egkGyyee0WCaGfkhkc-18" value="+5V" style="edgeLabel;resizable=0;html=1;;align=center;verticalAlign=middle;" connectable="0" vertex="1" parent="y7egkGyyee0WCaGfkhkc-17">
          <mxGeometry relative="1" as="geometry" />
        </mxCell>
        <mxCell id="y7egkGyyee0WCaGfkhkc-15" value="" style="endArrow=classic;html=1;rounded=0;" edge="1" parent="y7egkGyyee0WCaGfkhkc-25">
          <mxGeometry relative="1" as="geometry">
            <mxPoint x="270" y="71.49999999999994" as="sourcePoint" />
            <mxPoint x="380" y="71.49999999999994" as="targetPoint" />
          </mxGeometry>
        </mxCell>
        <mxCell id="y7egkGyyee0WCaGfkhkc-16" value="+43V" style="edgeLabel;resizable=0;html=1;;align=center;verticalAlign=middle;" connectable="0" vertex="1" parent="y7egkGyyee0WCaGfkhkc-15">
          <mxGeometry relative="1" as="geometry" />
        </mxCell>
        <mxCell id="y7egkGyyee0WCaGfkhkc-19" value="" style="endArrow=classic;html=1;rounded=0;" edge="1" parent="y7egkGyyee0WCaGfkhkc-25">
          <mxGeometry relative="1" as="geometry">
            <mxPoint x="270" y="101.49999999999994" as="sourcePoint" />
            <mxPoint x="380" y="101.49999999999994" as="targetPoint" />
          </mxGeometry>
        </mxCell>
        <mxCell id="y7egkGyyee0WCaGfkhkc-20" value="+5V ISO" style="edgeLabel;resizable=0;html=1;;align=center;verticalAlign=middle;" connectable="0" vertex="1" parent="y7egkGyyee0WCaGfkhkc-19">
          <mxGeometry relative="1" as="geometry" />
        </mxCell>
        <mxCell id="y7egkGyyee0WCaGfkhkc-39" value="" style="endArrow=classic;html=1;rounded=0;" edge="1" parent="y7egkGyyee0WCaGfkhkc-25">
          <mxGeometry relative="1" as="geometry">
            <mxPoint x="270" y="116.5" as="sourcePoint" />
            <mxPoint x="380" y="116.5" as="targetPoint" />
          </mxGeometry>
        </mxCell>
        <mxCell id="y7egkGyyee0WCaGfkhkc-40" value="State LEDs" style="edgeLabel;resizable=0;html=1;;align=center;verticalAlign=middle;" connectable="0" vertex="1" parent="y7egkGyyee0WCaGfkhkc-39">
          <mxGeometry relative="1" as="geometry" />
        </mxCell>
        <mxCell id="ZBryR0kt3o8j6Fu_iN5K-101" value="Motor Board" style="shape=process;whiteSpace=wrap;html=1;backgroundOutline=1;" parent="y7egkGyyee0WCaGfkhkc-25" vertex="1">
          <mxGeometry x="149" y="547" width="120" height="60" as="geometry" />
        </mxCell>
        <mxCell id="ZBryR0kt3o8j6Fu_iN5K-111" value="&lt;font style=&quot;font-size: 10px;&quot;&gt;Input&lt;/font&gt;" style="text;html=1;align=center;verticalAlign=middle;resizable=0;points=[];autosize=1;strokeColor=none;fillColor=none;rotation=270;" parent="y7egkGyyee0WCaGfkhkc-25" vertex="1">
          <mxGeometry x="129" y="562" width="50" height="30" as="geometry" />
        </mxCell>
        <mxCell id="ZBryR0kt3o8j6Fu_iN5K-116" value="&lt;font style=&quot;font-size: 10px;&quot;&gt;Output&lt;/font&gt;" style="text;html=1;align=center;verticalAlign=middle;resizable=0;points=[];autosize=1;strokeColor=none;fillColor=none;rotation=90;" parent="y7egkGyyee0WCaGfkhkc-25" vertex="1">
          <mxGeometry x="239" y="562" width="50" height="30" as="geometry" />
        </mxCell>
        <mxCell id="ZBryR0kt3o8j6Fu_iN5K-169" value="" style="endArrow=classic;html=1;rounded=0;" parent="y7egkGyyee0WCaGfkhkc-25" edge="1">
          <mxGeometry relative="1" as="geometry">
            <mxPoint x="39" y="552.8" as="sourcePoint" />
            <mxPoint x="149" y="552.8" as="targetPoint" />
          </mxGeometry>
        </mxCell>
        <mxCell id="ZBryR0kt3o8j6Fu_iN5K-170" value="Label" style="edgeLabel;resizable=0;html=1;;align=center;verticalAlign=middle;" parent="ZBryR0kt3o8j6Fu_iN5K-169" connectable="0" vertex="1">
          <mxGeometry relative="1" as="geometry" />
        </mxCell>
        <mxCell id="ZBryR0kt3o8j6Fu_iN5K-172" value="" style="endArrow=classic;html=1;rounded=0;" parent="y7egkGyyee0WCaGfkhkc-25" edge="1">
          <mxGeometry relative="1" as="geometry">
            <mxPoint x="39" y="568.8" as="sourcePoint" />
            <mxPoint x="149" y="568.8" as="targetPoint" />
          </mxGeometry>
        </mxCell>
        <mxCell id="ZBryR0kt3o8j6Fu_iN5K-173" value="Label" style="edgeLabel;resizable=0;html=1;;align=center;verticalAlign=middle;" parent="ZBryR0kt3o8j6Fu_iN5K-172" connectable="0" vertex="1">
          <mxGeometry relative="1" as="geometry" />
        </mxCell>
        <mxCell id="ZBryR0kt3o8j6Fu_iN5K-175" value="" style="endArrow=classic;html=1;rounded=0;" parent="y7egkGyyee0WCaGfkhkc-25" edge="1">
          <mxGeometry relative="1" as="geometry">
            <mxPoint x="39" y="584.8" as="sourcePoint" />
            <mxPoint x="149" y="584.8" as="targetPoint" />
          </mxGeometry>
        </mxCell>
        <mxCell id="ZBryR0kt3o8j6Fu_iN5K-176" value="Label" style="edgeLabel;resizable=0;html=1;;align=center;verticalAlign=middle;" parent="ZBryR0kt3o8j6Fu_iN5K-175" connectable="0" vertex="1">
          <mxGeometry relative="1" as="geometry" />
        </mxCell>
        <mxCell id="ZBryR0kt3o8j6Fu_iN5K-178" value="" style="endArrow=classic;html=1;rounded=0;" parent="y7egkGyyee0WCaGfkhkc-25" edge="1">
          <mxGeometry relative="1" as="geometry">
            <mxPoint x="39" y="600.8" as="sourcePoint" />
            <mxPoint x="149" y="600.8" as="targetPoint" />
          </mxGeometry>
        </mxCell>
        <mxCell id="ZBryR0kt3o8j6Fu_iN5K-179" value="Label" style="edgeLabel;resizable=0;html=1;;align=center;verticalAlign=middle;" parent="ZBryR0kt3o8j6Fu_iN5K-178" connectable="0" vertex="1">
          <mxGeometry relative="1" as="geometry" />
        </mxCell>
        <mxCell id="ZBryR0kt3o8j6Fu_iN5K-257" value="" style="endArrow=classic;html=1;rounded=0;" parent="y7egkGyyee0WCaGfkhkc-25" edge="1">
          <mxGeometry relative="1" as="geometry">
            <mxPoint x="269" y="551.81" as="sourcePoint" />
            <mxPoint x="379" y="551.81" as="targetPoint" />
          </mxGeometry>
        </mxCell>
        <mxCell id="ZBryR0kt3o8j6Fu_iN5K-258" value="Label" style="edgeLabel;resizable=0;html=1;;align=center;verticalAlign=middle;" parent="ZBryR0kt3o8j6Fu_iN5K-257" connectable="0" vertex="1">
          <mxGeometry relative="1" as="geometry" />
        </mxCell>
        <mxCell id="ZBryR0kt3o8j6Fu_iN5K-259" value="" style="endArrow=classic;html=1;rounded=0;" parent="y7egkGyyee0WCaGfkhkc-25" edge="1">
          <mxGeometry relative="1" as="geometry">
            <mxPoint x="269" y="567.81" as="sourcePoint" />
            <mxPoint x="379" y="567.81" as="targetPoint" />
          </mxGeometry>
        </mxCell>
        <mxCell id="ZBryR0kt3o8j6Fu_iN5K-260" value="Label" style="edgeLabel;resizable=0;html=1;;align=center;verticalAlign=middle;" parent="ZBryR0kt3o8j6Fu_iN5K-259" connectable="0" vertex="1">
          <mxGeometry relative="1" as="geometry" />
        </mxCell>
        <mxCell id="ZBryR0kt3o8j6Fu_iN5K-261" value="" style="endArrow=classic;html=1;rounded=0;" parent="y7egkGyyee0WCaGfkhkc-25" edge="1">
          <mxGeometry relative="1" as="geometry">
            <mxPoint x="269" y="583.81" as="sourcePoint" />
            <mxPoint x="379" y="583.81" as="targetPoint" />
          </mxGeometry>
        </mxCell>
        <mxCell id="ZBryR0kt3o8j6Fu_iN5K-262" value="Label" style="edgeLabel;resizable=0;html=1;;align=center;verticalAlign=middle;" parent="ZBryR0kt3o8j6Fu_iN5K-261" connectable="0" vertex="1">
          <mxGeometry relative="1" as="geometry" />
        </mxCell>
        <mxCell id="ZBryR0kt3o8j6Fu_iN5K-263" value="" style="endArrow=classic;html=1;rounded=0;" parent="y7egkGyyee0WCaGfkhkc-25" edge="1">
          <mxGeometry relative="1" as="geometry">
            <mxPoint x="269" y="599.81" as="sourcePoint" />
            <mxPoint x="379" y="599.81" as="targetPoint" />
          </mxGeometry>
        </mxCell>
        <mxCell id="ZBryR0kt3o8j6Fu_iN5K-264" value="Label" style="edgeLabel;resizable=0;html=1;;align=center;verticalAlign=middle;" parent="ZBryR0kt3o8j6Fu_iN5K-263" connectable="0" vertex="1">
          <mxGeometry relative="1" as="geometry" />
        </mxCell>
        <mxCell id="ZBryR0kt3o8j6Fu_iN5K-285" value="" style="swimlane;startSize=0;fillColor=#b0e3e6;strokeColor=#0e8088;" parent="y7egkGyyee0WCaGfkhkc-25" vertex="1">
          <mxGeometry x="20" y="520" width="380" height="110" as="geometry" />
        </mxCell>
        <mxCell id="y7egkGyyee0WCaGfkhkc-42" value="" style="endArrow=classic;html=1;rounded=0;" edge="1" parent="y7egkGyyee0WCaGfkhkc-25">
          <mxGeometry relative="1" as="geometry">
            <mxPoint x="40" y="451.21" as="sourcePoint" />
            <mxPoint x="150" y="451.21" as="targetPoint" />
          </mxGeometry>
        </mxCell>
        <mxCell id="y7egkGyyee0WCaGfkhkc-43" value="+43V" style="edgeLabel;resizable=0;html=1;;align=center;verticalAlign=middle;" connectable="0" vertex="1" parent="y7egkGyyee0WCaGfkhkc-42">
          <mxGeometry relative="1" as="geometry" />
        </mxCell>
        <mxCell id="ZBryR0kt3o8j6Fu_iN5K-118" value="Output" style="text;html=1;align=center;verticalAlign=middle;resizable=0;points=[];autosize=1;strokeColor=none;fillColor=none;rotation=270;" parent="y7egkGyyee0WCaGfkhkc-25" vertex="1">
          <mxGeometry x="234" y="436.5" width="60" height="30" as="geometry" />
        </mxCell>
        <mxCell id="ZBryR0kt3o8j6Fu_iN5K-103" value="Star Board" style="shape=process;whiteSpace=wrap;html=1;backgroundOutline=1;" parent="y7egkGyyee0WCaGfkhkc-25" vertex="1">
          <mxGeometry x="150" y="421.5" width="120" height="60" as="geometry" />
        </mxCell>
        <mxCell id="ZBryR0kt3o8j6Fu_iN5K-113" value="&lt;font style=&quot;font-size: 10px;&quot;&gt;Input&lt;/font&gt;" style="text;html=1;align=center;verticalAlign=middle;resizable=0;points=[];autosize=1;rotation=270;" parent="y7egkGyyee0WCaGfkhkc-25" vertex="1">
          <mxGeometry x="129" y="436.5" width="50" height="30" as="geometry" />
        </mxCell>
        <mxCell id="y7egkGyyee0WCaGfkhkc-45" value="&lt;font style=&quot;font-size: 10px;&quot;&gt;Output&lt;/font&gt;" style="text;html=1;align=center;verticalAlign=middle;resizable=0;points=[];autosize=1;rotation=90;" vertex="1" parent="y7egkGyyee0WCaGfkhkc-25">
          <mxGeometry x="239" y="436.5" width="50" height="30" as="geometry" />
        </mxCell>
        <mxCell id="y7egkGyyee0WCaGfkhkc-46" value="" style="endArrow=classic;html=1;rounded=0;" edge="1" parent="y7egkGyyee0WCaGfkhkc-25">
          <mxGeometry relative="1" as="geometry">
            <mxPoint x="270" y="451.21" as="sourcePoint" />
            <mxPoint x="380" y="451.21" as="targetPoint" />
          </mxGeometry>
        </mxCell>
        <mxCell id="y7egkGyyee0WCaGfkhkc-47" value="+43V" style="edgeLabel;resizable=0;html=1;;align=center;verticalAlign=middle;" connectable="0" vertex="1" parent="y7egkGyyee0WCaGfkhkc-46">
          <mxGeometry relative="1" as="geometry" />
        </mxCell>
        <mxCell id="y7egkGyyee0WCaGfkhkc-27" value="CARs" style="swimlane;whiteSpace=wrap;html=1;fillColor=#1ba1e2;fontColor=#ffffff;strokeColor=#006EAF;" vertex="1" parent="1">
          <mxGeometry x="910" y="58.5" width="420" height="451.5" as="geometry" />
        </mxCell>
      </root>
    </mxGraphModel>
  </diagram>
</mxfile>
